# xmcd CD database file
#
# Track frame offsets:
#	150
#	9512
#	28690
#	52350
#	72310
#	99645
#	115230
#	129135
#	155207
#	183285
#	211927
#	223332
#
# Disc length: 3111 seconds
#
# Revision: 0
# Processed by: cddbd v1.4PL0 Copyright (c) Steve Scherf et al.
# Submitted via: CD2WAV32(EN) R3.19
#
DISCID=b20c250c
DTITLE=Various Artist - Japanese Girls
DYEAR=1900
DGENRE=
TTITLE0=Cycling
TTITLE1=Shizukani Yurete
TTITLE2=Yumeno Atosaki
TTITLE3=Kyujitsu
TTITLE4=_1998
TTITLE5=Control memories
TTITLE6=the past now
TTITLE7=Subarashiki Ichinichi
TTITLE8=Bokuha Fukigen
TTITLE9=Koino Hai
TTITLE10=elephone
TTITLE11=Haruha Mousugu
EXTD=
EXTT0=
EXTT1=
EXTT2=
EXTT3=
EXTT4=
EXTT5=
EXTT6=
EXTT7=
EXTT8=
EXTT9=
EXTT10=
EXTT11=
PLAYORDER=
